HIERARCHY
ROOT Hips
{
	OFFSET 0.000000 0.000000 0.000000 
	CHANNELS 6 Xposition Yposition Zposition Yrotation Xrotation Zrotation
	JOINT Spine
	{
		OFFSET 0.000000 0.072080 0.012321 
		CHANNELS 3 Xrotation Yrotation Zrotation
		JOINT Spine1
		{
			OFFSET 0.000000 0.126984 -0.001294 
			CHANNELS 3 Xrotation Yrotation Zrotation
			JOINT Spine2
			{
				OFFSET 0.000000 0.106559 -0.010096 
				CHANNELS 3 Xrotation Yrotation Zrotation
				JOINT Neck
				{
					OFFSET 0.000000 0.108417 -0.034017 
					CHANNELS 3 Xrotation Yrotation Zrotation
					JOINT Neck1
					{
						OFFSET 0.000000 0.033906 0.007241 
						CHANNELS 3 Xrotation Yrotation Zrotation
						JOINT Head
						{
							OFFSET 0.000000 0.031458 0.006707 
							CHANNELS 3 Xrotation Yrotation Zrotation
							End Site
							{
								OFFSET 0.000000 0.179920 0.000962 
							}
						}
					}
				}
				JOINT LeftShoulder
				{
					OFFSET 0.048002 0.079586 -0.029634 
					CHANNELS 3 Zrotation Xrotation Yrotation
					JOINT LeftArm
					{
						OFFSET 0.096243 -0.008695 -0.014012 
						CHANNELS 3 Zrotation Xrotation Yrotation
						JOINT LeftForeArm
						{
							OFFSET 0.216305 0.000000 0.000000 
							CHANNELS 3 Xrotation Zrotation Yrotation
							JOINT LeftHand
							{
								OFFSET 0.217764 0.000000 0.000000 
								CHANNELS 3 Zrotation Yrotation Xrotation
								JOINT LeftHandThumb1
								{
									OFFSET 0.018582 -0.007835 0.020476 
									CHANNELS 3 Zrotation Xrotation Yrotation
									JOINT LeftHandThumb2
									{
										OFFSET 0.026269 -0.007835 0.022186 
										CHANNELS 3 Zrotation Xrotation Yrotation
										JOINT LeftHandThumb3
										{
											OFFSET 0.035170 -0.010504 0.017018 
											CHANNELS 3 Zrotation Xrotation Yrotation
											End Site
											{
												OFFSET 0.020312 -0.007813 0.007813 
											}
										}
									}
								}
								JOINT LeftHandMiddle1
								{
									OFFSET 0.081749 0.004803 0.003358 
									CHANNELS 3 Zrotation Xrotation Yrotation
									JOINT LeftHandMiddle2
									{
										OFFSET 0.045251 0.000000 0.000000 
										CHANNELS 3 Zrotation Xrotation Yrotation
										JOINT LeftHandMiddle3
										{
											OFFSET 0.029009 0.000000 0.000000 
											CHANNELS 3 Zrotation Xrotation Yrotation
											End Site
											{
												OFFSET 0.017969 0.000000 0.000000 
											}
										}
									}
								}
								JOINT LeftHandIndex1
								{
									OFFSET 0.081207 0.004803 0.021137 
									CHANNELS 3 Zrotation Xrotation Yrotation
									JOINT LeftHandIndex2
									{
										OFFSET 0.043354 0.000000 0.000000 
										CHANNELS 3 Zrotation Xrotation Yrotation
										JOINT LeftHandIndex3
										{
											OFFSET 0.026493 0.000000 0.000000 
											CHANNELS 3 Zrotation Xrotation Yrotation
											End Site
											{
												OFFSET 0.019531 0.000000 0.000000 
											}
										}
									}
								}
								JOINT LeftHandRing1
								{
									OFFSET 0.080666 0.002509 -0.014652 
									CHANNELS 3 Zrotation Xrotation Yrotation
									JOINT LeftHandRing2
									{
										OFFSET 0.042541 0.000000 0.000000 
										CHANNELS 3 Zrotation Xrotation Yrotation
										JOINT LeftHandRing3
										{
											OFFSET 0.029009 0.000000 0.000000 
											CHANNELS 3 Zrotation Xrotation Yrotation
											End Site
											{
												OFFSET 0.015625 0.000000 0.000000 
											}
										}
									}
								}
								JOINT LeftHandPinky1
								{
									OFFSET 0.078227 -0.000612 -0.030993 
									CHANNELS 3 Zrotation Xrotation Yrotation
									JOINT LeftHandPinky2
									{
										OFFSET 0.028721 0.000000 0.000000 
										CHANNELS 3 Zrotation Xrotation Yrotation
										JOINT LeftHandPinky3
										{
											OFFSET 0.021963 0.000000 0.000000 
											CHANNELS 3 Zrotation Xrotation Yrotation
											End Site
											{
												OFFSET 0.022656 0.000000 0.000000 
											}
										}
									}
								}
							}
						}
					}
				}
				JOINT RightShoulder
				{
					OFFSET -0.047970 0.079586 -0.029634 
					CHANNELS 3 Zrotation Xrotation Yrotation
					JOINT RightArm
					{
						OFFSET -0.096274 -0.008695 -0.014012 
						CHANNELS 3 Zrotation Xrotation Yrotation
						JOINT RightForeArm
						{
							OFFSET -0.216305 0.000000 0.000000 
							CHANNELS 3 Xrotation Zrotation Yrotation
							JOINT RightHand
							{
								OFFSET -0.217764 0.000000 0.000000 
								CHANNELS 3 Zrotation Yrotation Xrotation
								JOINT RightHandThumb1
								{
									OFFSET -0.019670 -0.007318 0.019638 
									CHANNELS 3 Zrotation Xrotation Yrotation
									JOINT RightHandThumb2
									{
										OFFSET -0.025498 -0.008492 0.023179 
										CHANNELS 3 Zrotation Xrotation Yrotation
										JOINT RightHandThumb3
										{
											OFFSET -0.034504 -0.010705 0.016680 
											CHANNELS 3 Zrotation Xrotation Yrotation
											End Site
											{
												OFFSET -0.020312 -0.007813 0.007813 
											}
										}
									}
								}
								JOINT RightHandIndex1
								{
									OFFSET -0.081770 0.003825 0.021187 
									CHANNELS 3 Zrotation Xrotation Yrotation
									JOINT RightHandIndex2
									{
										OFFSET -0.042006 0.000000 0.000000 
										CHANNELS 3 Zrotation Xrotation Yrotation
										JOINT RightHandIndex3
										{
											OFFSET -0.026449 0.000000 0.000000 
											CHANNELS 3 Zrotation Xrotation Yrotation
											End Site
											{
												OFFSET -0.020312 0.000000 0.000000 
											}
										}
									}
								}
								JOINT RightHandMiddle1
								{
									OFFSET -0.084059 0.003825 0.003342 
									CHANNELS 3 Zrotation Xrotation Yrotation
									JOINT RightHandMiddle2
									{
										OFFSET -0.043881 0.000000 0.000000 
										CHANNELS 3 Zrotation Xrotation Yrotation
										JOINT RightHandMiddle3
										{
											OFFSET -0.029191 0.000000 0.000000 
											CHANNELS 3 Zrotation Xrotation Yrotation
											End Site
											{
												OFFSET -0.017969 0.000000 0.000000 
											}
										}
									}
								}
								JOINT RightHandRing1
								{
									OFFSET -0.081798 0.003030 -0.015127 
									CHANNELS 3 Zrotation Xrotation Yrotation
									JOINT RightHandRing2
									{
										OFFSET -0.042198 0.000000 0.000000 
										CHANNELS 3 Zrotation Xrotation Yrotation
										JOINT RightHandRing3
										{
											OFFSET -0.026497 0.000000 0.000000 
											CHANNELS 3 Zrotation Xrotation Yrotation
											End Site
											{
												OFFSET -0.017188 0.000000 0.000000 
											}
										}
									}
								}
								JOINT RightHandPinky1
								{
									OFFSET -0.077902 -0.000930 -0.030891 
									CHANNELS 3 Zrotation Xrotation Yrotation
									JOINT RightHandPinky2
									{
										OFFSET -0.028538 0.000000 0.000000 
										CHANNELS 3 Zrotation Xrotation Yrotation
										JOINT RightHandPinky3
										{
											OFFSET -0.021734 0.000000 0.000000 
											CHANNELS 3 Zrotation Xrotation Yrotation
											End Site
											{
												OFFSET -0.022656 0.000000 0.000000 
											}
										}
									}
								}
							}
						}
					}
				}
			}
		}
	}
	JOINT LeftUpLeg
	{
		OFFSET 0.075264 -0.025573 0.000000 
		CHANNELS 3 Xrotation Yrotation Zrotation
		JOINT LeftLeg
		{
			OFFSET 0.000000 -0.326016 -0.013516 
			CHANNELS 3 Xrotation Yrotation Zrotation
			JOINT LeftFoot
			{
				OFFSET 0.000098 -0.306172 -0.006623 
				CHANNELS 3 Xrotation Yrotation Zrotation
				JOINT LeftToeBase
				{
					OFFSET -0.001432 -0.095259 0.064705 
					CHANNELS 3 Xrotation Yrotation Zrotation
					End Site
					{
						OFFSET 0.000000 0.000000 0.079438 
					}
				}
			}
		}
	}
	JOINT RightUpLeg
	{
		OFFSET -0.075264 -0.025573 0.000000 
		CHANNELS 3 Xrotation Yrotation Zrotation
		JOINT RightLeg
		{
			OFFSET 0.000000 -0.326016 -0.013516 
			CHANNELS 3 Xrotation Yrotation Zrotation
			JOINT RightFoot
			{
				OFFSET 0.000098 -0.306172 -0.006623 
				CHANNELS 3 Xrotation Yrotation Zrotation
				JOINT RightToeBase
				{
					OFFSET -0.001432 -0.095259 0.064705 
					CHANNELS 3 Xrotation Yrotation Zrotation
					End Site
					{
						OFFSET 0.000025 0.000000 0.079438 
					}
				}
			}
		}
	}
}
MOTION
Frames: 6
Frame Time: 0.033333
-0.003751 0.751357 0.005704 -5.739400 -3.073900 1.278200 1.639000 2.103900 -0.719800 3.206500 4.111300 -1.643000 3.215700 4.112400 -1.617900 -3.247800 -0.926700 1.630900 -0.000000 0.000000 -0.000000 -5.703300 -2.514300 0.865900 -11.203400 0.673600 0.520500 -68.300499 -15.432400 -4.652000 -0.000000 0.000000 -31.692101 -10.072600 3.032300 44.699501 -6.810200 2.015500 19.920601 -0.645200 -2.063300 6.579800 6.318900 -3.450800 3.410700 -10.473200 0.465300 -2.053500 -11.865900 -0.021700 0.208700 -10.036500 -0.015500 0.176900 -10.489300 0.465900 -2.053000 -11.849800 -0.021600 0.208500 -10.036500 -0.015500 0.176900 -10.489300 0.465900 -2.053000 -11.849800 -0.021600 0.208500 -10.036500 -0.015500 0.176900 -10.396200 0.465800 2.031400 -11.915200 0.819900 -3.789300 -10.036500 -0.015500 0.176900 10.889800 -0.465600 -5.012600 66.068497 0.201800 14.520800 -0.000000 0.000000 19.059299 7.935800 -1.141100 37.456699 -0.410500 4.405800 -12.221700 3.756000 14.563900 -1.134600 -3.634300 3.787100 1.116500 12.642300 0.468000 1.607000 18.475000 -0.117700 -0.723900 9.237700 -0.029600 -0.366700 12.642300 0.468000 1.607000 18.475000 -0.117700 -0.723900 9.237700 -0.029600 -0.366700 12.642300 0.468000 1.607000 18.475000 -0.117700 -0.723900 9.237700 -0.029600 -0.366700 12.642300 0.468000 1.607000 18.475000 -0.117700 -0.723900 9.237700 -0.029600 -0.366700 -24.064600 7.706900 4.866900 54.341599 6.301400 0.144100 1.595700 -0.023400 3.044400 -8.838200 -0.000000 -0.000000 -8.555100 -5.247200 1.313700 25.584101 -10.166600 -0.507400 -14.822900 -8.103100 -1.858600 -0.000000 0.000000 0.000000 
-0.003655 0.754170 0.028386 -7.010600 -2.739700 1.547500 1.738700 2.365300 -0.758700 3.385600 4.716100 -1.801900 3.393900 4.719800 -1.772400 -3.319600 -0.950800 1.488400 -0.000000 0.000000 -0.000000 -5.883200 -2.818400 0.798500 -11.255300 0.669200 0.520500 -68.667603 -16.899700 -1.652400 -0.000000 0.000000 -31.615200 -11.323100 2.133300 42.525902 -6.387800 2.202300 18.618299 -0.643600 -2.059000 6.514700 6.318000 -3.452400 3.378100 -8.985600 0.411500 -2.091200 -11.061100 -0.018900 0.194800 -9.634100 -0.014300 0.169900 -9.001700 0.412000 -2.090800 -11.045000 -0.018800 0.194500 -9.634100 -0.014300 0.169900 -9.001700 0.412000 -2.090800 -11.045000 -0.018800 0.194500 -9.634100 -0.014300 0.169900 -8.908600 0.412000 1.993700 -11.112100 0.766500 -3.814600 -9.634100 -0.014300 0.169900 10.719900 -0.440700 -4.950500 65.518997 1.302600 16.797001 -0.000000 0.000000 21.341000 8.716500 -1.740100 36.286301 -0.410500 4.405800 -12.221700 3.766100 14.536600 -1.586500 -3.644900 3.795200 0.892400 13.917200 0.503000 1.545400 20.145800 -0.139800 -0.786800 10.073100 -0.035200 -0.399600 13.917200 0.503000 1.545400 20.145800 -0.139800 -0.786800 10.073100 -0.035200 -0.399600 13.917200 0.503000 1.545400 20.145800 -0.139800 -0.786800 10.073100 -0.035200 -0.399600 13.917200 0.503000 1.545400 20.145800 -0.139800 -0.786800 10.073100 -0.035200 -0.399600 -25.633400 7.907100 4.819700 47.858002 6.569400 0.144800 -0.124600 -0.052000 1.545400 -8.847600 0.000000 -0.000000 -6.316000 -5.602600 0.677500 24.170601 -10.136200 -0.452400 -15.472300 -6.899700 -1.728200 0.000000 -0.000000 0.000000 
-0.003438 0.756218 0.051635 -7.952700 -2.357300 1.684000 1.788800 2.551900 -0.751900 3.485200 5.137200 -1.866400 3.491300 5.143200 -1.834600 -3.502100 -0.977500 1.391700 -0.000000 0.000000 -0.000000 -6.218000 -3.081600 0.777200 -11.323700 0.668900 0.520500 -69.031998 -18.154800 1.268300 0.000000 0.000000 -30.553600 -12.664500 1.161700 40.300800 -6.013800 2.385600 17.144199 -0.644000 -2.060100 6.531000 6.318200 -3.452000 3.386300 -7.405400 0.353200 -2.129800 -10.254100 -0.016200 0.180700 -9.230500 -0.013100 0.162800 -7.421500 0.353800 -2.129400 -10.238000 -0.016200 0.180400 -9.230600 -0.013100 0.162800 -7.421500 0.353800 -2.129400 -10.238000 -0.016200 0.180400 -9.230600 -0.013100 0.162800 -7.328300 0.353700 1.955300 -10.306800 0.712600 -3.839300 -9.230500 -0.013200 0.162900 10.627100 -0.436200 -4.964900 65.227898 2.550200 18.365499 0.000000 0.000000 24.429399 9.117600 -2.721000 35.202702 -0.410500 4.405800 -12.221700 3.776100 14.508800 -2.045600 -3.655600 3.803500 0.664700 15.157600 0.535900 1.484600 22.006701 -0.166500 -0.856000 11.003700 -0.042000 -0.436000 15.157600 0.535900 1.484600 22.006701 -0.166500 -0.856000 11.003700 -0.042000 -0.436000 15.157600 0.535900 1.484600 22.006701 -0.166500 -0.856000 11.003700 -0.042000 -0.436000 15.157600 0.535900 1.484600 22.006701 -0.166500 -0.856000 11.003700 -0.042000 -0.436000 -26.115000 8.209800 4.942900 39.175701 7.069300 0.149800 -1.210400 -0.012300 -0.111000 -10.094100 -0.000000 -0.000000 -3.815300 -6.011100 0.141500 22.179701 -9.971400 -0.413900 -15.660900 -5.951600 -1.516700 0.000000 0.000000 0.000000 
-0.002833 0.756872 0.076044 -8.513400 -1.989900 1.678400 1.766600 2.675200 -0.693600 3.465000 5.390200 -1.868900 3.467800 5.398100 -1.837300 -3.737300 -1.016800 1.371000 -0.000000 0.000000 -0.000000 -6.563600 -3.299100 0.790800 -11.403200 0.669500 0.520500 -69.244301 -19.210300 4.256600 0.000000 0.000000 -28.845100 -14.113000 0.109300 37.967499 -5.733600 2.562800 15.327200 -0.648300 -2.071700 6.706400 6.320700 -3.447800 3.474200 -5.636300 0.286800 -2.171000 -9.439200 -0.013800 0.166500 -8.823100 -0.012000 0.155700 -5.652400 0.287400 -2.170700 -9.423100 -0.013700 0.166200 -8.823100 -0.012000 0.155700 -5.652400 0.287400 -2.170700 -9.423100 -0.013700 0.166200 -8.823100 -0.012000 0.155700 -5.559300 0.287200 1.914100 -9.493600 0.657900 -3.863500 -8.823100 -0.012000 0.155700 10.642000 -0.469500 -5.100300 65.151299 4.005300 19.360600 0.000000 -0.000000 27.565701 9.235700 -3.674800 34.096199 -0.410500 4.405800 -12.221700 3.786200 14.480000 -2.521100 -3.666600 3.812000 0.428900 16.336599 0.565800 1.426300 24.248899 -0.201600 -0.938200 12.124900 -0.050900 -0.479800 16.336599 0.565800 1.426300 24.248899 -0.201600 -0.938200 12.124900 -0.050900 -0.479800 16.336599 0.565800 1.426300 24.248899 -0.201600 -0.938200 12.124900 -0.050900 -0.479800 16.336599 0.565800 1.426300 24.248899 -0.201600 -0.938200 12.124900 -0.050900 -0.479800 -25.413900 8.692700 4.990900 28.267200 8.092200 0.163900 -1.572600 0.048600 -1.713100 -10.701300 0.000000 -0.000000 -1.090500 -6.566600 -0.292200 19.887100 -9.713000 -0.388600 -15.680100 -5.176700 -1.167200 0.000000 -0.000000 0.000000 
-0.001464 0.755471 0.102041 -8.729600 -1.683700 1.548400 1.659700 2.781600 -0.596000 3.299000 5.566300 -1.889600 3.297600 5.575800 -1.860300 -3.897400 -1.078800 1.448200 -0.000000 0.000000 -0.000000 -6.647500 -3.469500 0.806200 -11.488500 0.671200 0.520500 -69.227203 -20.201500 7.476900 -0.000000 -0.000000 -27.362499 -15.637800 -0.991500 35.531399 -5.659600 2.692100 13.374800 -0.658000 -2.098200 7.105400 6.326300 -3.438400 3.674500 -3.959700 0.222700 -2.208200 -8.789100 -0.011900 0.155100 -8.498000 -0.011100 0.150000 -3.975800 0.223300 -2.207900 -8.773000 -0.011900 0.154800 -8.498000 -0.011100 0.150000 -3.975800 0.223300 -2.207900 -8.773000 -0.011900 0.154800 -8.498000 -0.011100 0.150000 -3.882600 0.223000 1.877000 -8.845000 0.614000 -3.882200 -8.498000 -0.011100 0.150000 10.777800 -0.557500 -5.390600 65.248802 5.528800 19.808901 0.000000 0.000000 30.211599 9.222800 -4.209900 32.867401 -0.410500 4.405800 -12.221700 3.794300 14.456100 -2.913400 -3.675700 3.819200 0.234300 17.153000 0.585900 1.385500 26.563700 -0.241200 -1.021600 13.282400 -0.061100 -0.524800 17.153000 0.585900 1.385500 26.563700 -0.241200 -1.021600 13.282400 -0.061100 -0.524800 17.153000 0.585900 1.385500 26.563700 -0.241200 -1.021600 13.282400 -0.061100 -0.524800 17.153000 0.585900 1.385500 26.563700 -0.241200 -1.021600 13.282400 -0.061100 -0.524800 -23.639601 9.363900 4.715400 15.730100 9.827500 0.191500 -1.291100 0.146000 -3.036300 -10.880000 -0.000000 -0.000000 1.605300 -7.364500 -0.718800 18.090500 -9.522500 -0.362800 -16.119301 -4.404200 -0.535500 0.000000 -0.000000 -0.000000 
0.000986 0.751679 0.130030 -8.771700 -1.425100 1.296300 1.480200 2.864400 -0.386900 3.021700 5.656400 -1.930500 3.015100 5.667000 -1.906500 -3.953900 -1.138800 1.624000 -0.000000 0.000000 -0.000000 -6.464200 -3.512500 0.868700 -11.574700 0.673700 0.520500 -69.083801 -21.039801 10.746700 0.000000 0.000000 -26.388399 -17.178499 -2.105300 33.075298 -5.775000 2.727600 12.203900 -0.667800 -2.125700 7.518900 6.332200 -3.428500 3.881900 -3.110900 0.189800 -2.226300 -8.556900 -0.011300 0.151100 -8.382000 -0.010800 0.148000 -3.127000 0.190400 -2.226000 -8.540800 -0.011300 0.150800 -8.381900 -0.010800 0.148000 -3.127000 0.190400 -2.226000 -8.540800 -0.011300 0.150800 -8.381900 -0.010800 0.148000 -3.033800 0.190100 1.858900 -8.613400 0.598300 -3.888800 -8.381900 -0.010800 0.148000 11.049600 -0.713100 -5.875900 65.500504 6.887400 19.862400 0.000000 0.000000 32.174900 9.135500 -4.348200 31.976700 -0.410500 4.405800 -12.221700 3.797300 14.447100 -3.060900 -3.679100 3.821800 0.161100 17.320400 0.589900 1.377100 27.849400 -0.264600 -1.067200 13.925300 -0.067100 -0.549700 17.320400 0.589900 1.377100 27.849400 -0.264600 -1.067200 13.925300 -0.067100 -0.549700 17.320400 0.589900 1.377100 27.849400 -0.264600 -1.067200 13.925300 -0.067100 -0.549700 17.320400 0.589900 1.377100 27.849400 -0.264600 -1.067200 13.925300 -0.067100 -0.549700 -22.279200 9.965900 4.193100 5.974100 9.918700 0.295700 -1.529300 3.126800 -3.805500 -10.662600 0.000000 -0.000000 3.994000 -8.424800 -1.229000 17.398899 -9.568500 -0.332000 -16.944300 -3.583000 0.506400 -0.386800 0.000000 -0.000000 
